<svg xmlns="http://www.w3.org/2000/svg" viewBox="0 0 88 110" fill="none" role="img" aria-labelledby="title desc">
  <title id="title">TenantHawk Mark</title>
  <desc id="desc">Stylized hawk mark for TenantHawk without background.</desc>
  <defs>
    <linearGradient id="mark-yellow" x1="0" y1="0" x2="1" y2="1">
      <stop offset="0%" stop-color="#FFE866" />
      <stop offset="55%" stop-color="#FFD84D" />
      <stop offset="100%" stop-color="#FFB800" />
    </linearGradient>
    <linearGradient id="mark-dark" x1="0" y1="0" x2="1" y2="1">
      <stop offset="0%" stop-color="#1C2233" />
      <stop offset="100%" stop-color="#0D111A" />
    </linearGradient>
  </defs>

  <g transform="translate(2 2)">
    <path
      d="M42 6
         L70 18
         L70 46
         C70 64 58 77 42 86
         C26 77 14 64 14 46
         L14 18
         Z"
      fill="url(#mark-dark)"
      stroke="url(#mark-yellow)"
      stroke-width="2.5"
      stroke-linejoin="round"
    />

    <path
      d="M28 51
         L42 20
         L56 29
         L48 42
         L60 42
         L40 65
         L46 49
         Z"
      fill="url(#mark-yellow)"
    />

    <path
      d="M56 29
         L66 26
         L58 35
         Z"
      fill="#FFE866"
    />

    <circle cx="47" cy="33" r="2.4" fill="#0A0D14" />
    <circle cx="47.8" cy="32.2" r="0.7" fill="#FFF8D6" />

    <path d="M7 33 L0 30 L5 36" stroke="#FFD84D" stroke-width="2" stroke-linecap="round" stroke-linejoin="round" opacity="0.85" />
    <path d="M9 47 L1 47" stroke="#FFD84D" stroke-width="2" stroke-linecap="round" opacity="0.75" />
    <path d="M77 36 L84 33 L79 39" stroke="#FFD84D" stroke-width="2" stroke-linecap="round" stroke-linejoin="round" opacity="0.85" />

    <path
      d="M42 87
         L37 96
         L43 96
         L39 104"
      stroke="url(#mark-yellow)"
      stroke-width="2.4"
      stroke-linecap="round"
      stroke-linejoin="round"
    />
  </g>
</svg>
